<svg xmlns="http://www.w3.org/2000/svg" viewBox="0 0 863.61 392"><defs><style>.a{fill:#fff;}</style></defs><path class="a" d="M16,72H432a16,16,0,0,0,16-16V16A16,16,0,0,0,432,0H16A16,16,0,0,0,0,16V56A16,16,0,0,0,16,72Zm0,160H432a16,16,0,0,0,16-16V176a16,16,0,0,0-16-16H16A16,16,0,0,0,0,176v40A16,16,0,0,0,16,232Zm0,160H432a16,16,0,0,0,16-16V336a16,16,0,0,0-16-16H16A16,16,0,0,0,0,336v40A16,16,0,0,0,16,392Z"/><rect class="a" x="460.75" y="160" width="448" height="72" rx="12" transform="translate(339.15 -426.78) rotate(45)"/><rect class="a" x="460.75" y="160" width="448" height="72" rx="12" transform="translate(61.97 541.6) rotate(-45)"/></svg>