<svg xmlns="http://www.w3.org/2000/svg" viewBox="0 0 85 85"><defs><style>.cls-1{fill:#3885ca;}.cls-2{fill:#fff;}</style></defs><g id="Capa_2" data-name="Capa 2"><g id="Capa_1-2" data-name="Capa 1"><circle class="cls-1" cx="42.5" cy="42.5" r="42.5"/><path class="cls-2" d="M60.92,34.36c0,10.73-6,18.74-14.75,18.74-3,0-5.73-1.59-6.68-3.41,0,0-1.59,6.3-1.92,7.52-1.18,4.29-4.67,8.59-4.93,8.95A.37.37,0,0,1,32,66c-.07-.55-1-6,.09-10.39.52-2.22,3.51-14.9,3.51-14.9a10.58,10.58,0,0,1-.87-4.33c0-4.05,2.35-7.07,5.27-7.07,2.49,0,3.69,1.86,3.69,4.1,0,2.5-1.59,6.24-2.41,9.7a4.22,4.22,0,0,0,3,5.14,4.13,4.13,0,0,0,1.26.13c5.18,0,8.67-6.65,8.67-14.54,0-6-4-10.47-11.37-10.47-8.3,0-13.47,6.18-13.47,13.09a7.86,7.86,0,0,0,1.81,5.36,1.33,1.33,0,0,1,.39,1.53c-.13.5-.43,1.71-.56,2.19a1,1,0,0,1-1.2.75l-.17-.06c-3.81-1.57-5.59-5.75-5.59-10.45C24.1,28,30.65,18.7,43.64,18.7,54.06,18.7,60.92,26.25,60.92,34.36Z"/></g></g></svg>