<?xml version="1.0" encoding="utf-8"?>
<!-- Generator: Adobe Illustrator 24.2.0, SVG Export Plug-In . SVG Version: 6.00 Build 0)  -->
<svg version="1.1" id="Capa_1" xmlns="http://www.w3.org/2000/svg" xmlns:xlink="http://www.w3.org/1999/xlink" x="0px" y="0px"
	 viewBox="0 0 255 170" style="enable-background:new 0 0 255 170;" xml:space="preserve">
<style type="text/css">
	.st0{fill:#5F5F5F;}
	.st1{fill:#FFFFFF;}
</style>
<path class="st0" d="M63.2,19.3H21.8c-1.4,0-2.6,1.1-2.6,2.6v41.4c0,1.4,1.1,2.6,2.6,2.6l0,0h22.3v-18H38v-7h6.1v-5.2
	c0-6,3.7-9.3,9-9.3c1.8,0,3.6,0.1,5.4,0.3v6.3h-3.7c-2.9,0-3.5,1.4-3.5,3.4v4.5h7l-0.9,7h-6v18h11.8c1.4,0,2.6-1.1,2.6-2.6V21.8
	C65.7,20.4,64.6,19.3,63.2,19.3z"/>
<path class="st0" d="M127.5,23c6.4,0,7.1,0,9.6,0.1c1.5,0,3,0.3,4.4,0.8c2.1,0.8,3.7,2.4,4.5,4.5c0.5,1.4,0.8,2.9,0.8,4.4
	c0.1,2.5,0.1,3.3,0.1,9.6s0,7.1-0.1,9.6c0,1.5-0.3,3-0.8,4.4c-0.8,2.1-2.4,3.7-4.5,4.5c-1.4,0.5-2.9,0.8-4.4,0.8
	c-2.5,0.1-3.3,0.1-9.6,0.1s-7.1,0-9.6-0.1c-1.5,0-3-0.3-4.4-0.8c-2.1-0.8-3.7-2.5-4.5-4.5c-0.5-1.4-0.8-2.9-0.8-4.4
	c-0.2-2.5-0.2-3.3-0.2-9.6s0-7.1,0.1-9.6c0-1.5,0.3-3,0.9-4.4c0.8-2,2.4-3.7,4.5-4.5c1.4-0.5,2.9-0.8,4.4-0.8
	C120.4,23,121.1,23,127.5,23 M127.5,18.7c-6.5,0-7.3,0-9.8,0.1c-2,0.1-3.9,0.4-5.8,1.2c-3.2,1.2-5.8,3.8-7,7
	c-0.7,1.9-1.1,3.8-1.1,5.8c-0.1,2.5-0.1,3.3-0.1,9.8s0,7.3,0.1,9.8c0.1,1.9,0.5,3.9,1.2,5.7c1.2,3.2,3.8,5.8,7,7
	c1.9,0.7,3.8,1.1,5.8,1.1c2.5,0.1,3.3,0.1,9.8,0.1c6.5,0,7.3,0,9.8-0.1c2,0,3.9-0.4,5.8-1.1c3.2-1.2,5.8-3.8,7-7
	c0.7-1.9,1.1-3.8,1.1-5.8c0.1-2.5,0.1-3.3,0.1-9.8s0-7.3-0.1-9.8c0-2-0.4-3.9-1.1-5.8c-1.2-3.2-3.8-5.8-7-7
	c-1.9-0.7-3.8-1.1-5.8-1.1C134.9,18.7,134,18.7,127.5,18.7L127.5,18.7z"/>
<path class="st0" d="M127.5,30.3c-6.7,0-12.2,5.5-12.2,12.2s5.5,12.2,12.2,12.2s12.2-5.5,12.2-12.2S134.2,30.3,127.5,30.3
	L127.5,30.3z M127.5,50.4c-4.4,0-7.9-3.6-7.9-7.9c0-4.4,3.6-7.9,7.9-7.9c4.4,0,7.9,3.6,7.9,7.9c0,0,0,0,0,0
	C135.4,46.9,131.9,50.4,127.5,50.4C127.5,50.4,127.5,50.4,127.5,50.4z"/>
<circle class="st0" cx="140.2" cy="29.8" r="2.9"/>
<path class="st0" d="M230.9,34.4c0,10.7-6,18.7-14.8,18.7c-3,0-5.7-1.6-6.7-3.4c0,0-1.6,6.3-1.9,7.5c-1.2,4.3-4.7,8.6-4.9,9
	c-0.1,0.1-0.4,0.1-0.5,0c-0.1-0.1-0.1-0.1-0.1-0.2c-0.1-0.6-1-6,0.1-10.4c0.5-2.2,3.5-14.9,3.5-14.9c-0.6-1.4-0.9-2.8-0.9-4.3
	c0-4,2.4-7.1,5.3-7.1c2.5,0,3.7,1.9,3.7,4.1c0,2.5-1.6,6.2-2.4,9.7c-0.6,2.3,0.8,4.6,3,5.1c0,0,0,0,0,0c0.4,0.1,0.8,0.1,1.3,0.1
	c5.2,0,8.7-6.7,8.7-14.5c0-6-4-10.5-11.4-10.5c-8.3,0-13.5,6.2-13.5,13.1c-0.1,1.9,0.6,3.9,1.8,5.4c0.5,0.4,0.6,1,0.4,1.5
	c-0.1,0.5-0.4,1.7-0.6,2.2c-0.1,0.5-0.7,0.9-1.2,0.8c0,0,0,0,0,0c-0.1,0-0.1,0-0.2-0.1c-3.8-1.6-5.6-5.8-5.6-10.5
	c0-7.8,6.6-17.1,19.5-17.1C224.1,18.7,230.9,26.3,230.9,34.4z"/>
<path class="st1" d="M63.2,104.3H21.8c-1.4,0-2.6,1.1-2.6,2.6v41.4c0,1.4,1.1,2.6,2.6,2.6h22.3v-18H38v-7h6.1v-5.2
	c0-6,3.7-9.3,9-9.3c1.8,0,3.6,0.1,5.4,0.3v6.3h-3.7c-2.9,0-3.5,1.4-3.5,3.4v4.5h7l-0.9,7h-6v18h11.8c1.4,0,2.6-1.1,2.6-2.6v-41.3
	C65.7,105.4,64.6,104.3,63.2,104.3C63.2,104.3,63.2,104.3,63.2,104.3z"/>
<path class="st1" d="M127.5,108c6.4,0,7.1,0,9.6,0.1c1.5,0,3,0.3,4.4,0.8c2.1,0.8,3.7,2.4,4.5,4.5c0.5,1.4,0.8,2.9,0.8,4.4
	c0.1,2.5,0.1,3.3,0.1,9.6c0,6.4,0,7.1-0.1,9.6c0,1.5-0.3,3-0.8,4.4c-0.8,2.1-2.4,3.7-4.5,4.5c-1.4,0.5-2.9,0.8-4.4,0.8
	c-2.5,0.1-3.3,0.1-9.6,0.1s-7.1,0-9.6-0.1c-1.5,0-3-0.3-4.4-0.8c-2.1-0.8-3.7-2.5-4.5-4.5c-0.5-1.4-0.8-2.9-0.8-4.4
	c-0.2-2.5-0.2-3.3-0.2-9.6s0-7.1,0.1-9.6c0-1.5,0.3-3,0.9-4.4c0.8-2,2.4-3.7,4.5-4.5c1.4-0.5,2.9-0.8,4.4-0.8
	C120.4,108,121.1,108,127.5,108 M127.5,103.7c-6.5,0-7.3,0-9.8,0.1c-2,0.1-3.9,0.4-5.8,1.2c-3.2,1.2-5.8,3.8-7,7
	c-0.7,1.9-1.1,3.8-1.1,5.8c-0.1,2.5-0.1,3.3-0.1,9.8s0,7.3,0.1,9.8c0.1,1.9,0.5,3.9,1.2,5.7c1.2,3.2,3.8,5.8,7,7
	c1.9,0.7,3.8,1.1,5.8,1.1c2.5,0.1,3.3,0.1,9.8,0.1s7.3,0,9.8-0.1c2,0,3.9-0.4,5.8-1.1c3.2-1.2,5.8-3.8,7-7c0.7-1.9,1.1-3.8,1.1-5.8
	c0.1-2.5,0.1-3.4,0.1-9.8s0-7.3-0.1-9.8c0-2-0.4-3.9-1.1-5.8c-1.2-3.2-3.8-5.8-7-7c-1.9-0.7-3.8-1.1-5.8-1.1
	C134.9,103.7,134,103.7,127.5,103.7L127.5,103.7z"/>
<path class="st1" d="M127.5,115.3c-6.7,0-12.2,5.5-12.2,12.2c0,6.7,5.5,12.2,12.2,12.2s12.2-5.5,12.2-12.2S134.2,115.3,127.5,115.3
	L127.5,115.3z M127.5,135.4c-4.4,0-7.9-3.6-7.9-7.9c0-4.4,3.6-7.9,7.9-7.9c4.4,0,7.9,3.6,7.9,7.9v0
	C135.4,131.9,131.9,135.4,127.5,135.4C127.5,135.4,127.5,135.4,127.5,135.4z"/>
<circle class="st1" cx="140.2" cy="114.8" r="2.9"/>
<path class="st1" d="M230.9,119.4c0,10.7-6,18.7-14.8,18.7c-3,0-5.7-1.6-6.7-3.4c0,0-1.6,6.3-1.9,7.5c-1.2,4.3-4.7,8.6-4.9,8.9
	c-0.1,0.1-0.4,0.1-0.5,0c-0.1-0.1-0.1-0.1-0.1-0.2c-0.1-0.6-1-6,0.1-10.4c0.5-2.2,3.5-14.9,3.5-14.9c-0.6-1.4-0.9-2.8-0.9-4.3
	c0-4,2.4-7.1,5.3-7.1c2.5,0,3.7,1.9,3.7,4.1c0,2.5-1.6,6.2-2.4,9.7c-0.6,2.3,0.8,4.6,3,5.1c0,0,0,0,0,0c0.4,0.1,0.8,0.1,1.3,0.1
	c5.2,0,8.7-6.7,8.7-14.5c0-6-4-10.5-11.4-10.5c-8.3,0-13.5,6.2-13.5,13.1c-0.1,1.9,0.6,3.9,1.8,5.4c0.5,0.4,0.6,1,0.4,1.5
	c-0.1,0.5-0.4,1.7-0.6,2.2c-0.1,0.5-0.7,0.9-1.2,0.8c0,0,0,0,0,0c-0.1,0-0.1,0-0.2-0.1c-3.8-1.6-5.6-5.8-5.6-10.4
	c0-7.8,6.6-17.1,19.5-17.1C224.1,103.7,230.9,111.3,230.9,119.4z"/>
</svg>
