<svg xmlns="http://www.w3.org/2000/svg" viewBox="0 0 255 170.01"><defs><style>.a{fill:#3885ca;}.b{fill:#fff;}.c{fill:#757575;}</style></defs><circle class="a" cx="42.5" cy="42.51" r="42.5"/><path class="b" d="M63.18,19.27H21.82a2.56,2.56,0,0,0-2.56,2.56V63.19a2.56,2.56,0,0,0,2.56,2.56H44.09v-18H38v-7h6.06V35.56c0-6,3.66-9.27,9-9.27a48.89,48.89,0,0,1,5.41.28v6.27H54.81c-2.92,0-3.48,1.39-3.48,3.42v4.48h7l-.91,7h-6v18H63.18a2.56,2.56,0,0,0,2.56-2.56V21.83A2.56,2.56,0,0,0,63.18,19.27Z"/><circle class="a" cx="127.5" cy="42.5" r="42.5"/><path class="b" d="M127.5,23c6.35,0,7.11,0,9.62.14a12.82,12.82,0,0,1,4.42.82,7.89,7.89,0,0,1,4.51,4.51,12.82,12.82,0,0,1,.82,4.42c.12,2.51.14,3.27.14,9.62s0,7.11-.14,9.62a12.82,12.82,0,0,1-.82,4.42,7.89,7.89,0,0,1-4.51,4.51,12.82,12.82,0,0,1-4.42.82c-2.51.12-3.26.14-9.62.14s-7.11,0-9.62-.14a12.82,12.82,0,0,1-4.42-.82A7.93,7.93,0,0,1,109,56.54a12.82,12.82,0,0,1-.82-4.42c-.18-2.51-.18-3.27-.18-9.62s0-7.11.14-9.62a13.1,13.1,0,0,1,.86-4.42A7.89,7.89,0,0,1,113.46,24a12.82,12.82,0,0,1,4.42-.82c2.51-.18,3.27-.18,9.62-.18m0-4.29c-6.46,0-7.27,0-9.81.14A17.34,17.34,0,0,0,111.91,20a12.14,12.14,0,0,0-7,7,17.54,17.54,0,0,0-1.11,5.78c-.11,2.54-.14,3.35-.14,9.81s0,7.27.14,9.81a17.64,17.64,0,0,0,1.2,5.69,12.14,12.14,0,0,0,7,7,17.54,17.54,0,0,0,5.78,1.11c2.54.11,3.35.14,9.81.14s7.27,0,9.81-.14a17.54,17.54,0,0,0,5.78-1.11,12.14,12.14,0,0,0,7-7,17.54,17.54,0,0,0,1.11-5.78c.11-2.54.14-3.35.14-9.81s0-7.27-.14-9.81a17.54,17.54,0,0,0-1.11-5.78,12.14,12.14,0,0,0-7-7,17.54,17.54,0,0,0-5.78-1.11c-2.54-.11-3.35-.14-9.81-.14Z"/><path class="b" d="M127.5,30.28A12.22,12.22,0,1,0,139.72,42.5,12.22,12.22,0,0,0,127.5,30.28Zm0,20.15a7.93,7.93,0,1,1,7.93-7.93,7.93,7.93,0,0,1-7.93,7.93Z"/><circle class="b" cx="140.2" cy="29.8" r="2.86"/><circle class="a" cx="212.5" cy="42.51" r="42.5"/><path class="b" d="M230.92,34.37c0,10.73-6,18.74-14.75,18.74-3,0-5.73-1.59-6.68-3.41,0,0-1.59,6.3-1.92,7.52-1.18,4.29-4.67,8.59-4.93,9a.37.37,0,0,1-.52,0A.37.37,0,0,1,202,66c-.07-.55-1-6,.09-10.39.52-2.22,3.51-14.9,3.51-14.9a10.54,10.54,0,0,1-.87-4.33c0-4,2.35-7.07,5.27-7.07,2.49,0,3.69,1.86,3.69,4.1,0,2.5-1.59,6.24-2.41,9.7a4.23,4.23,0,0,0,3.05,5.15,4.46,4.46,0,0,0,1.26.12c5.18,0,8.67-6.65,8.67-14.54,0-6-4-10.47-11.37-10.47-8.3,0-13.47,6.18-13.47,13.09a7.86,7.86,0,0,0,1.81,5.36,1.33,1.33,0,0,1,.39,1.53c-.13.5-.43,1.71-.56,2.19a1,1,0,0,1-1.2.75.85.85,0,0,1-.17-.06c-3.81-1.57-5.59-5.75-5.59-10.45,0-7.77,6.55-17.08,19.54-17.08C224.06,18.71,230.92,26.26,230.92,34.37Z"/><circle class="c" cx="42.5" cy="127.51" r="42.5"/><path class="b" d="M63.18,104.27H21.82a2.56,2.56,0,0,0-2.56,2.56v41.36a2.56,2.56,0,0,0,2.56,2.56H44.09v-18H38v-7h6.06v-5.19c0-6,3.66-9.27,9-9.27a48.89,48.89,0,0,1,5.41.28v6.27H54.81c-2.92,0-3.48,1.39-3.48,3.42v4.48h7l-.91,7h-6v18H63.18a2.56,2.56,0,0,0,2.56-2.56V106.83A2.56,2.56,0,0,0,63.18,104.27Z"/><circle class="c" cx="127.5" cy="127.5" r="42.5"/><path class="b" d="M127.5,108c6.35,0,7.11,0,9.62.14a12.82,12.82,0,0,1,4.42.82,7.89,7.89,0,0,1,4.51,4.51,12.82,12.82,0,0,1,.82,4.42c.12,2.51.14,3.27.14,9.62s0,7.11-.14,9.62a12.82,12.82,0,0,1-.82,4.42,7.89,7.89,0,0,1-4.51,4.51,12.82,12.82,0,0,1-4.42.82c-2.51.12-3.26.14-9.62.14s-7.11,0-9.62-.14a12.82,12.82,0,0,1-4.42-.82,7.93,7.93,0,0,1-4.46-4.52,12.82,12.82,0,0,1-.82-4.42c-.18-2.51-.18-3.27-.18-9.62s0-7.11.14-9.62a13.1,13.1,0,0,1,.86-4.42,7.89,7.89,0,0,1,4.46-4.46,12.82,12.82,0,0,1,4.42-.82c2.51-.18,3.27-.18,9.62-.18m0-4.29c-6.46,0-7.27,0-9.81.14a17.34,17.34,0,0,0-5.78,1.15,12.14,12.14,0,0,0-7,7,17.54,17.54,0,0,0-1.11,5.78c-.11,2.54-.14,3.35-.14,9.81s0,7.27.14,9.81a17.64,17.64,0,0,0,1.2,5.69,12.14,12.14,0,0,0,7,7,17.54,17.54,0,0,0,5.78,1.11c2.54.11,3.35.14,9.81.14s7.27,0,9.81-.14a17.54,17.54,0,0,0,5.78-1.11,12.14,12.14,0,0,0,7-7,17.54,17.54,0,0,0,1.11-5.78c.11-2.54.14-3.35.14-9.81s0-7.27-.14-9.81a17.54,17.54,0,0,0-1.11-5.78,12.14,12.14,0,0,0-7-7,17.54,17.54,0,0,0-5.78-1.11c-2.54-.11-3.35-.14-9.81-.14Z"/><path class="b" d="M127.5,115.28a12.22,12.22,0,1,0,12.22,12.22,12.22,12.22,0,0,0-12.22-12.22Zm0,20.15a7.93,7.93,0,1,1,7.93-7.93,7.93,7.93,0,0,1-7.93,7.93Z"/><circle class="b" cx="140.2" cy="114.8" r="2.86"/><circle class="c" cx="212.5" cy="127.51" r="42.5"/><path class="b" d="M230.92,119.37c0,10.73-6,18.74-14.75,18.74-3,0-5.73-1.59-6.68-3.41,0,0-1.59,6.3-1.92,7.52-1.18,4.29-4.67,8.59-4.93,8.95a.37.37,0,0,1-.52,0,.37.37,0,0,1-.12-.2c-.07-.55-1-6,.09-10.39.52-2.22,3.51-14.9,3.51-14.9a10.54,10.54,0,0,1-.87-4.33c0-4,2.35-7.07,5.27-7.07,2.49,0,3.69,1.86,3.69,4.1,0,2.5-1.59,6.24-2.41,9.7a4.23,4.23,0,0,0,3.05,5.15,4.46,4.46,0,0,0,1.26.12c5.18,0,8.67-6.65,8.67-14.54,0-6-4-10.47-11.37-10.47-8.3,0-13.47,6.18-13.47,13.09a7.86,7.86,0,0,0,1.81,5.36,1.33,1.33,0,0,1,.39,1.53c-.13.5-.43,1.71-.56,2.19a1,1,0,0,1-1.2.75.85.85,0,0,1-.17-.06c-3.81-1.57-5.59-5.75-5.59-10.45,0-7.77,6.55-17.08,19.54-17.08C224.06,103.71,230.92,111.26,230.92,119.37Z"/></svg>